<?xml version="1.0" standalone="no"?>
<!DOCTYPE svg PUBLIC "-//W3C//DTD SVG 20010904//EN"
 "http://www.w3.org/TR/2001/REC-SVG-20010904/DTD/svg10.dtd">
<svg version="1.0" xmlns="http://www.w3.org/2000/svg"
 width="400.000000pt" height="400.000000pt" viewBox="0 0 400.000000 400.000000"
 preserveAspectRatio="xMidYMid meet">
<metadata>
Created by potrace 1.11, written by Peter Selinger 2001-2013
</metadata>
<g transform="translate(0.000000,400.000000) scale(0.100000,-0.100000)"
fill="#000000" stroke="none">
<path d="M1941 3828 c-30 -95 -55 -174 -56 -175 -1 -2 -51 -9 -111 -17 -61 -8
-139 -22 -175 -31 l-64 -17 -136 142 -135 143 -50 -22 c-27 -12 -88 -45 -136
-73 -72 -43 -87 -56 -83 -73 3 -11 19 -81 36 -155 18 -74 33 -144 36 -155 3
-20 2 -21 -127 -114 -30 -21 -77 -62 -104 -89 l-49 -50 -41 15 c-69 24 -319
103 -321 100 -1 -1 -36 -59 -78 -128 l-77 -127 50 -53 c28 -30 69 -79 92 -109
23 -30 52 -66 64 -80 l23 -25 -34 -70 c-19 -38 -35 -77 -35 -85 0 -9 -13 -54
-28 -100 l-29 -85 -174 -48 c-96 -27 -180 -50 -186 -52 -10 -3 -13 -43 -13
-153 l0 -149 164 -48 163 -49 17 -115 c9 -64 23 -146 32 -182 l17 -66 -137
-136 -136 -137 17 -37 c10 -21 43 -78 74 -128 66 -106 49 -103 259 -48 l134
35 16 -23 c8 -13 29 -40 46 -59 17 -19 41 -51 54 -70 13 -19 48 -60 77 -91
l52 -55 -50 -173 c-28 -95 -48 -178 -46 -185 3 -6 61 -43 130 -83 112 -63 128
-69 139 -56 7 9 64 61 125 115 l113 99 89 -35 c49 -20 97 -36 107 -37 11 0 48
-10 83 -22 l63 -22 43 -150 c24 -83 48 -169 54 -193 l12 -42 148 0 149 0 27
88 c15 48 38 125 51 170 12 46 24 85 26 87 2 1 53 10 114 19 62 9 142 25 178
35 l67 19 132 -139 c73 -77 138 -139 146 -139 8 0 68 30 133 66 l120 67 -6 46
c-4 25 -21 106 -38 180 l-31 134 34 29 c19 16 50 40 69 53 34 23 69 53 140
121 l35 33 173 -59 c95 -33 177 -60 181 -60 8 0 161 234 161 247 0 5 -30 45
-67 90 -38 45 -89 109 -115 142 l-48 61 35 85 c20 47 40 107 45 133 19 101 9
94 197 141 92 23 182 46 198 50 l30 7 3 152 c1 84 0 152 -3 152 -7 0 -349 111
-353 115 -1 1 -9 49 -18 106 -8 57 -22 131 -31 163 l-17 60 148 142 c129 125
147 146 141 166 -4 13 -35 72 -68 132 l-61 108 -50 -7 c-27 -3 -105 -19 -173
-36 -69 -16 -133 -29 -143 -29 -10 0 -28 15 -40 35 -12 19 -25 35 -29 35 -4 0
-13 11 -19 24 -6 14 -41 56 -77 95 l-67 70 15 48 c12 40 32 103 101 319 6 19
-9 31 -124 99 l-130 77 -67 -62 c-38 -34 -84 -74 -103 -88 -19 -14 -52 -41
-72 -60 l-37 -35 -87 37 c-48 20 -118 43 -155 52 -37 8 -72 21 -77 27 -5 7
-31 99 -58 205 l-49 192 -150 0 -150 0 -54 -172z m189 -498 c102 -12 230 -41
230 -51 0 -4 -43 -115 -96 -246 -52 -131 -105 -267 -116 -303 -39 -123 -27
-115 -174 -115 l-128 0 -13 80 c-68 425 -93 587 -93 604 0 16 9 21 58 26 31 3
64 8 72 9 35 8 182 5 260 -4z m-465 -42 c7 -20 115 -663 115 -685 0 -14 -15
-26 -52 -43 -29 -13 -73 -37 -97 -54 -42 -30 -44 -30 -55 -12 -16 27 -150 183
-204 236 -25 25 -63 70 -85 100 -22 30 -69 87 -103 126 l-63 71 47 35 c119 88
157 112 246 153 79 37 204 81 239 84 4 1 10 -5 12 -11z m950 -102 c83 -44 298
-203 328 -242 16 -22 13 -24 -217 -218 -129 -107 -253 -213 -276 -235 l-43
-40 -41 34 c-39 31 -153 95 -172 95 -5 0 -15 4 -22 9 -11 7 -4 33 36 127 98
233 134 320 179 436 l46 117 51 -20 c28 -11 87 -40 131 -63z m-1338 -443 c114
-130 220 -250 235 -267 15 -17 27 -34 28 -38 0 -3 -15 -24 -32 -45 -18 -22
-42 -56 -53 -76 -11 -21 -27 -37 -37 -37 -9 0 -48 11 -85 25 -110 41 -329 118
-456 161 -65 21 -123 42 -128 45 -11 6 57 152 93 199 118 157 210 267 225 270
1 0 95 -106 210 -237z m1827 -4 c60 -84 102 -163 144 -271 26 -66 58 -195 50
-203 -2 -2 -129 -22 -283 -45 -154 -23 -307 -46 -340 -51 -81 -12 -95 -11 -95
4 0 22 -70 159 -102 200 l-32 40 24 16 c13 9 77 61 142 116 65 55 141 118 168
140 27 22 89 72 137 112 l88 72 23 -27 c13 -15 47 -61 76 -103z m-2215 -344
c53 -18 107 -37 121 -43 14 -6 106 -39 205 -73 99 -34 182 -63 184 -65 1 -1
-4 -24 -13 -51 -9 -26 -19 -80 -22 -120 -8 -80 -2 -75 -104 -88 -25 -3 -163
-21 -308 -40 -144 -19 -274 -35 -287 -35 l-25 0 0 108 c0 117 19 254 52 375
l21 78 40 -7 c22 -3 83 -21 136 -39z m1256 -30 c266 -135 323 -451 119 -651
-200 -196 -517 -139 -642 116 -105 213 5 464 243 552 78 29 204 21 280 -17z
m1180 -262 c10 -110 1 -236 -25 -383 -21 -117 -37 -170 -50 -170 -17 0 -190
62 -259 92 -25 11 -63 27 -85 34 -132 46 -326 129 -326 140 0 7 5 25 11 41 6
15 12 77 14 138 l2 110 90 12 c49 6 157 19 239 28 82 8 190 22 239 29 156 23
142 30 150 -71z m-1941 -264 c9 -33 28 -84 43 -112 l26 -51 -34 -29 c-19 -15
-52 -40 -74 -55 -72 -48 -257 -186 -316 -235 -32 -26 -81 -60 -108 -76 l-50
-30 -24 29 c-69 81 -193 420 -185 505 3 29 5 30 80 42 43 6 149 19 235 28 87
9 194 23 238 29 44 7 96 14 116 15 36 1 36 1 53 -60z m1288 -142 c132 -56 229
-94 403 -157 77 -28 144 -55 148 -59 13 -13 -73 -167 -144 -260 -35 -46 -74
-98 -85 -115 -27 -40 -100 -106 -118 -106 -13 0 -144 139 -163 174 -5 10 -39
48 -75 85 -53 54 -190 208 -229 259 -8 9 2 27 37 65 25 29 60 76 76 105 17 28
34 52 39 52 4 0 54 -20 111 -43z m-1122 -138 c30 -29 72 -63 93 -77 20 -13 37
-29 37 -34 0 -4 -25 -75 -55 -156 -30 -82 -55 -153 -55 -159 0 -17 -120 -346
-130 -356 -17 -18 -164 72 -322 196 -77 61 -199 193 -197 214 0 8 44 43 224
174 61 45 124 94 140 109 36 35 186 138 200 139 6 1 35 -22 65 -50z m832 -104
c17 -20 43 -52 58 -73 15 -20 70 -84 124 -142 53 -58 116 -130 139 -160 23
-30 59 -72 80 -93 l38 -38 -73 -55 c-104 -79 -271 -157 -398 -187 -58 -14
-108 -23 -112 -19 -8 9 -84 373 -98 477 -6 44 -18 105 -26 136 -20 82 -20 84
34 98 26 6 79 29 117 50 39 21 74 39 78 40 4 0 22 -15 39 -34z m-577 -52 c28
-9 90 -19 140 -22 l89 -6 47 -240 c67 -337 84 -456 67 -466 -22 -14 -289 -10
-379 6 -108 19 -239 51 -250 62 -5 5 4 46 21 93 16 47 30 92 30 101 0 9 16 59
35 110 28 78 115 320 130 367 6 15 10 15 70 -5z"/>
</g>
</svg>
